# xmcd
#
# Track frame offsets:
#	182
#	21830
#	43012
#	116740
#	183547
#	206085
#	249637
#	266960
#
# Disc length: 4249 seconds
#
# Revision: 6
# Processed by: cddbd v1.5.2PL0 Copyright (c) Steve Scherf et al.
# Submitted via: audiograbber 1.83.01
#
DISCID=79109708
DTITLE=Van Morrison - A Night in San Francisco [CD2 of 2)
DYEAR=1994
DGENRE=Blues/Rock
TTITLE0=Jumpin' With Symphony Sid
TTITLE1=It Fills You Up
TTITLE2=I'll Take Care Of You - It's A Man's, Man's, Man's World
TTITLE3=Lonely Avenue - 4 O'Clock In The Morning
TTITLE4=So Quiet In Here - That's Where It's At
TTITLE5=In The Garden - You Send Me - Allegheny
TTITLE6=Have I Told You Lately That I Love You?
TTITLE7=Shakin' All Over - Gloria
EXTD=Recorded Live At The Masonic Auditorium - San Francisco
EXTT0=
EXTT1=
EXTT2=
EXTT3=
EXTT4=
EXTT5=
EXTT6=
EXTT7=
PLAYORDER=
